# xmcd CD database file
#
# Track frame offsets:
#	150
#	27580
#	60817
#	86135
#	118050
#	145397
#	164810
#	188560
#	223792
#	254075
#	274330
#	298772
#	331982
#
# Disc length: 4707 seconds
#
# Revision: 0
# Processed by: cddbd v1.5.2PL0 Copyright (c) Steve Scherf et al.
# Submitted via: CDex 1.51
#
DISCID=d512610d
DTITLE=Gene Burkert - The Jazz Palette
DYEAR=2005
DGENRE=Jazz
TTITLE0=Sugar
TTITLE1=Our Pleasure
TTITLE2=Rogue March
TTITLE3=Yesterdays
TTITLE4=Gaviota
TTITLE5=Yatra Ta
TTITLE6=Alikeness
TTITLE7=Talking Walls
TTITLE8=Rasa and Her Moods
TTITLE9=The Very Thought of You
TTITLE10=Straight Ahead
TTITLE11=Wind in Time
TTITLE12=Relative Material
EXTD=YEAR: 2005
EXTT0=
EXTT1=
EXTT2=
EXTT3=
EXTT4=
EXTT5=
EXTT6=
EXTT7=
EXTT8=
EXTT9=
EXTT10=
EXTT11=
EXTT12=
PLAYORDER=
